<svg viewBox="0 0 63 52" fill="none" xmlns="http://www.w3.org/2000/svg">
<path d="M59.5704 35.3456H63L58.5151 30.6849C52.0956 24.0015 43.2139 20.2202 33.8924 20.2202H32.8372H30.5508H29.4076C20.174 20.2202 11.2923 24.0015 4.78484 30.6849L0.299988 35.3456H3.72958C12.9631 35.3456 21.8449 31.5642 28.3523 24.8809L31.694 21.4513C29.7593 33.2351 12.9631 51.878 12.9631 51.878H31.7819H50.6007C50.6007 51.878 33.9804 33.4989 31.8698 21.7151L34.9477 24.9689C41.3672 31.5642 50.2489 35.3456 59.5704 35.3456Z" fill="#201B21"/>
<path d="M28.8799 13.361L31.606 10.547L34.3321 13.361C39.6084 18.9011 46.9952 21.979 54.6459 21.979H57.4599L53.7665 18.1097C48.4902 12.5696 41.1034 9.49173 33.4527 9.49173H32.5733H30.6387H29.7593C22.1087 9.49173 14.8098 12.5696 9.44557 18.1097L5.75217 22.0669H8.56619C16.2168 22.0669 23.6036 18.9011 28.8799 13.361Z" fill="#201B21"/>
<path d="M29.4076 3.6878L31.606 1.40141L33.8045 3.6878C38.1135 8.17265 44.0933 10.7229 50.3369 10.7229H52.6233L49.6334 7.55708C45.3244 3.07223 39.3446 0.522022 33.101 0.522022H32.3975H30.8146H30.1111C23.8675 0.522022 17.8877 3.07223 13.5787 7.55708L10.5888 10.7229H12.8752C19.1188 10.7229 25.0986 8.17265 29.4076 3.6878Z" fill="#201B21"/>
</svg>
