<svg   id="chart"   viewBox="0 0 1000 500"   xmlns="http://www.w3.org/2000/svg" >      <path d="M 0,496.2487343268903 C 10.000000000000002,493.8506773688113 30,490.5375564965943 50,484.2584495364953 C 70,477.9793425763963 80,472.92571446830846 100,464.8531995263953 C 120,456.7806845844822 130,453.75835859751885 150,443.89587482692946 C 170,434.03339105634007 180,422.6272521602566 200,415.54078067344835 C 220,408.4543091866401 230,419.1064017135219 250,408.4635173928883 C 270,397.82063307225474 280,376.0255808709942 300,362.32635907028055 C 320,348.6271372695669 330,336.19776779591507 350,339.9674083893201 C 370,343.7370489827251 380,391.50263879905305 400,381.1745620373057 C 420,370.84648527555834 430,290.4198917552276 450,288.3270245805833 C 470,286.2341574059391 480,374.4591278865212 500,370.71022616408453 C 520,366.9613244416479 530,279.5952464924716 550,269.5825159684 C 570,259.56978544432843 580,320.876632662641 600,320.6465735437268 C 620,320.4165144248126 630,296.0899064739249 650,268.432220373829 C 670,240.77453427373317 680,198.1350753803981 700,182.35814304324754 C 720,166.58121070609698 730,206.01257133961113 750,189.5475586880762 C 770,173.0825460365413 780,99.31388958475773 800,100.03307978557291 C 820,100.75226998638809 830,166.023367381227 850,193.14350969215212 C 870,220.26365200307725 880,261.837116293275 900,235.63379134019857 C 920,209.43046638712212 930,101.51274707937122 950,62.12688492676989 C 970,22.741022774168563 990,43.388961447107526 1000,38.70448057719193,L 1000 500,L 0 500Z" fill="#eaff961a" />   <path d="M 0,496.2487343268903 C 10.000000000000002,493.8506773688113 30,490.5375564965943 50,484.2584495364953 C 70,477.9793425763963 80,472.92571446830846 100,464.8531995263953 C 120,456.7806845844822 130,453.75835859751885 150,443.89587482692946 C 170,434.03339105634007 180,422.6272521602566 200,415.54078067344835 C 220,408.4543091866401 230,419.1064017135219 250,408.4635173928883 C 270,397.82063307225474 280,376.0255808709942 300,362.32635907028055 C 320,348.6271372695669 330,336.19776779591507 350,339.9674083893201 C 370,343.7370489827251 380,391.50263879905305 400,381.1745620373057 C 420,370.84648527555834 430,290.4198917552276 450,288.3270245805833 C 470,286.2341574059391 480,374.4591278865212 500,370.71022616408453 C 520,366.9613244416479 530,279.5952464924716 550,269.5825159684 C 570,259.56978544432843 580,320.876632662641 600,320.6465735437268 C 620,320.4165144248126 630,296.0899064739249 650,268.432220373829 C 670,240.77453427373317 680,198.1350753803981 700,182.35814304324754 C 720,166.58121070609698 730,206.01257133961113 750,189.5475586880762 C 770,173.0825460365413 780,99.31388958475773 800,100.03307978557291 C 820,100.75226998638809 830,166.023367381227 850,193.14350969215212 C 870,220.26365200307725 880,261.837116293275 900,235.63379134019857 C 920,209.43046638712212 930,101.51274707937122 950,62.12688492676989 C 970,22.741022774168563 990,43.388961447107526 1000,38.70448057719193" fill="none" stroke="#EAFF96" stroke-width="4px" />   <g>      </g> </svg>